<svg width="24" height="24" viewBox="0 0 24 24" fill="none" xmlns="http://www.w3.org/2000/svg">
<path d="M6.07145 9.95381C6.08399 7.83458 6.93282 5.80678 8.4318 4.31576C9.93074 2.82448 11.9573 1.99175 14.0669 2.00006C16.1765 2.00838 18.1963 2.85712 19.6838 4.36013C21.1711 5.86298 22.0041 7.89737 22 10.0165C21.9959 12.1357 21.155 14.1668 19.6619 15.6641C18.1688 17.161 16.1455 18.0019 14.0359 18.0019C11.9183 17.9928 9.89077 17.1403 8.39785 15.6317C6.90489 14.123 6.06817 12.0812 6.07145 9.95381ZM9.2245 9.95381C9.23632 11.2344 9.75326 12.458 10.6616 13.3562C11.5701 14.2546 12.7962 14.7543 14.0708 14.7461C15.3455 14.7378 16.5649 14.222 17.4617 13.312C18.3584 12.4019 18.8594 11.1716 18.8548 9.89098C18.8501 8.61049 18.3403 7.38393 17.4369 6.48038C16.5335 5.57698 15.3103 5.0701 14.0357 5.07109C12.7525 5.07767 11.5245 5.59555 10.6213 6.51101C9.718 7.42658 9.21349 8.66486 9.2183 9.95381H9.2245Z" fill="white"/>
<path d="M2.29622 20.9021C1.90009 20.5025 1.90143 19.8559 2.29922 19.458L7.65675 14.0982C8.05453 13.7003 8.6981 13.7016 9.09422 14.1012L9.8846 14.8986C10.2807 15.2982 10.2794 15.9447 9.8816 16.3427L4.52407 21.7024C4.12629 22.1004 3.48272 22.099 3.0866 21.6994L2.29622 20.9021Z" fill="white"/>
</svg>
