<svg width="24" height="24" viewBox="0 0 24 24" fill="none" xmlns="http://www.w3.org/2000/svg">
<path fill-rule="evenodd" clip-rule="evenodd" d="M17.3948 3.11377C15.573 2.75708 13.6053 3.29736 12.2237 4.73511L12.0026 4.96582L11.7785 4.72852C10.67 3.57471 9.19054 3 7.70916 3C7.33344 3 6.95478 3.0376 6.58394 3.11157C5.53798 3.34033 4.538 3.87061 3.71121 4.70679C2.44216 5.98926 1.87955 7.79004 2.02143 9.5332C2.16624 10.7815 2.70341 11.9934 3.63196 12.9619L10.8725 20.5249C11.1631 20.8279 11.5682 21 11.9909 21C12.4145 21 12.8186 20.8284 13.1092 20.5254L16.7227 16.7646L16.7481 16.7385L20.3684 12.9717C21.2871 12.0156 21.8223 10.8223 21.975 9.59082C22.1296 7.83325 21.5679 6.01196 20.2881 4.71826C19.4555 3.87646 18.4486 3.34155 17.3948 3.11377ZM9.51049 7.45337C9.04768 6.98462 8.41658 6.74902 7.79037 6.74902C7.16416 6.74902 6.53306 6.98462 6.07026 7.45337C5.14269 8.39038 5.14269 9.62427 6.07026 10.5637L11.9997 16.5735L17.9291 10.5754C18.8557 9.63818 18.8557 8.40234 17.9291 7.46509C17.0025 6.52783 15.4154 6.52783 14.4879 7.46509L13.1787 8.79126C12.8587 9.1145 12.437 9.29419 11.9997 9.29419C11.5623 9.29419 11.1406 9.1145 10.8197 8.79126L9.51049 7.45337Z" fill="white"/>
</svg>
