<svg width="24" height="24" viewBox="0 0 24 24" fill="none" xmlns="http://www.w3.org/2000/svg">
<path d="M3.46797 4.54822L3.46798 4.54821C4.57725 3.38724 6.06813 2.80952 7.55196 2.80952C9.03643 2.80952 10.5175 3.3882 11.6263 4.54889L11.6274 4.55008L11.6274 4.55008L12.0007 4.94765L12.3728 4.5581C14.5898 2.23665 18.3133 2.23691 20.5308 4.55808C22.7437 6.87435 22.7437 10.5661 20.5308 12.8823C19.2742 14.1978 18.0139 15.5167 16.7536 16.8355C15.5039 18.1433 14.2541 19.4511 13.008 20.7557L3.46797 4.54822ZM3.46797 4.54822C1.25498 6.86463 1.25848 10.5552 3.46784 12.8724M3.46797 4.54822L3.46784 12.8724M3.46784 12.8724L10.9718 20.7553L10.9719 20.7555C11.2368 21.0331 11.6052 21.1905 11.9899 21.1905C12.3748 21.1905 12.743 21.0334 13.0079 20.7558L3.46784 12.8724ZM5.50325 6.47257C6.09474 5.85351 6.82898 5.54607 7.55196 5.54607C8.27424 5.54607 8.99881 5.85298 9.59078 6.47256L9.59129 6.47308L10.9917 7.9277L10.9919 7.92784C11.2565 8.20215 11.6225 8.35706 12.0045 8.35706C12.3866 8.35706 12.7524 8.20212 13.017 7.92785L13.018 7.92677L14.3993 6.47254C14.3994 6.47248 14.3995 6.47241 14.3995 6.47235C15.5741 5.24289 17.3214 5.24313 18.496 6.47256C19.6753 7.70716 19.6753 9.73314 18.496 10.9675L18.6312 11.0967L18.496 10.9675C17.3933 12.1219 16.291 13.2782 15.1888 14.4344L15.1789 14.4447C14.1193 15.5562 13.0598 16.6677 11.9998 17.7775L5.55162 11.018L5.55096 11.0081L5.50339 10.9582C4.32405 9.7212 4.32404 7.70687 5.50325 6.47257ZM5.50325 6.47257L5.36553 6.34099M5.50325 6.47257L5.36553 6.34099M5.36553 6.34099C4.1159 7.64899 4.11612 9.77914 5.36553 11.0897L12.8799 7.79559C12.6513 8.03251 12.3352 8.16658 12.0045 8.16658C11.6739 8.16658 11.3575 8.03251 11.129 7.79559L9.7285 6.34098C9.10366 5.68699 8.33054 5.35559 7.55196 5.35559C6.77333 5.35559 5.99037 5.68702 5.36553 6.34099Z" fill="white" stroke="white" stroke-width="0.380952"/>
</svg>
