<svg width="24" height="24" viewBox="0 0 24 24" fill="none" xmlns="http://www.w3.org/2000/svg">
<path d="M3.6476 4.72568C4.75265 3.57347 6.23834 3 7.71643 3C9.19554 3 10.6717 3.57467 11.776 4.72635L11.7782 4.72863L12.0018 4.96592L12.223 4.73521C14.4316 2.43117 18.142 2.43146 20.3512 4.73516C22.5496 7.02771 22.5496 10.6791 20.3512 12.9716C19.1502 14.2242 17.9443 15.4813 16.7383 16.7386L16.7133 16.7647C15.5094 18.0198 14.3055 19.2749 13.1064 20.5253C12.8163 20.8283 12.4126 21 11.9903 21C11.5679 21 11.164 20.8279 10.8739 20.5249L3.64733 12.9619C1.45274 10.6687 1.44895 7.01843 3.6476 4.72568Z" fill="white"/>
</svg>
