<svg width="24" height="24" viewBox="0 0 24 24" fill="none" xmlns="http://www.w3.org/2000/svg">
<path d="M9.75 18.5C9.75 18.9142 10.0858 19.25 10.5 19.25H13.5C13.9142 19.25 14.25 18.9142 14.25 18.5V17.5C14.25 17.0858 13.9142 16.75 13.5 16.75H10.5C10.0858 16.75 9.75 17.0858 9.75 17.5V18.5ZM3.5 4.75C3.08579 4.75 2.75 5.08579 2.75 5.5V6.5C2.75 6.91421 3.08579 7.25 3.5 7.25H20.5C20.9142 7.25 21.25 6.91421 21.25 6.5V5.5C21.25 5.08579 20.9142 4.75 20.5 4.75H3.5ZM5.75 12.5C5.75 12.9142 6.08579 13.25 6.5 13.25H17.5C17.9142 13.25 18.25 12.9142 18.25 12.5V11.5C18.25 11.0858 17.9142 10.75 17.5 10.75H6.5C6.08579 10.75 5.75 11.0858 5.75 11.5V12.5Z" fill="white" stroke="white" stroke-width="0.5"/>
</svg>
