<svg width="24" height="24" viewBox="0 0 24 24" fill="none" xmlns="http://www.w3.org/2000/svg">
<path fill-rule="evenodd" clip-rule="evenodd" d="M2.93747 15.3754C3.55969 16.5821 5.30204 16.6693 6.04913 15.5309L6.83138 14.3388C7.81593 12.8386 9.52273 11.9301 11.3566 11.9301H12.6436C14.4775 11.9301 16.1843 12.8386 17.1686 14.3388L17.9511 15.5309C18.6981 16.6692 20.4404 16.5821 21.063 15.3754M21.063 15.3754C21.1872 15.1343 21.2519 14.8684 21.2519 14.5988V11.2018C21.2519 8.14385 18.6955 5.66501 15.542 5.66501H8.45825C5.3047 5.66501 2.74836 8.14385 2.74836 11.2018V14.5988C2.74836 14.8684 2.81307 15.1343 2.93747 15.3754M9.15 15.7695L8.36753 16.9615C6.47356 19.8478 2.05691 19.6268 0.47904 16.5669C0.164006 15.956 0 15.2821 0 14.5988L1.85297e-05 11.2018C1.85297e-05 6.67219 3.7869 3 8.45825 3H15.5418C20.213 3 24 6.67206 24 11.2018V14.5988C24 15.2821 23.836 15.956 23.5207 16.567C21.943 19.6268 17.5264 19.8475 15.6322 16.9616L14.85 15.7695C14.3699 15.0381 13.5378 14.595 12.6435 14.595H11.3565C10.4622 14.595 9.63008 15.0381 9.15 15.7695Z" fill="white"/>
<path fill-rule="evenodd" clip-rule="evenodd" d="M14 8.5C14 7.67145 14.6717 7 15.5001 7C16.3285 7 17 7.67152 17 8.5C17 9.32848 16.3285 10 15.5001 10C14.6717 10 14 9.32854 14 8.5Z" fill="white"/>
<path fill-rule="evenodd" clip-rule="evenodd" d="M16 11.5001C16 10.6717 16.6714 10 17.4999 10C18.3283 10 19 10.6717 19 11.5001C19 12.3286 18.3283 13 17.4999 13C16.6715 13 16 12.3285 16 11.5001Z" fill="white"/>
<path fill-rule="evenodd" clip-rule="evenodd" d="M7.4999 7C8.07675 7 8.54411 7.46736 8.54411 8.04421V8.45569H8.95579C9.53245 8.45569 10 8.92324 10 9.4999C10 10.0766 9.53245 10.5441 8.95579 10.5441H8.54411V10.9558C8.54411 11.5324 8.07678 12 7.4999 12C6.92324 12 6.45569 11.5324 6.45569 10.9558V10.5441H6.04421C5.46734 10.5441 5 10.0765 5 9.4999C5 8.92327 5.46734 8.45569 6.04421 8.45569H6.45569V8.04421C6.45569 7.46734 6.92326 7 7.4999 7Z" fill="white"/>
</svg>
