<svg width="24" height="24" viewBox="0 0 24 24" fill="none" xmlns="http://www.w3.org/2000/svg">
<path d="M20.705 10H3.36133C3.18066 10 3 10.2051 3 10.4103V13.5897C3 13.7949 3.18066 14 3.36133 14H20.6146C20.7953 14 20.976 13.7949 20.976 13.5897V10.9875C20.976 10.6069 21.0857 10 20.705 10Z" fill="white"/>
<path d="M20.705 17H3.36133C3.18066 17 3 17.2051 3 17.4103V20.5897C3 20.7949 3.18066 21 3.36133 21H20.6146C20.7953 21 20.976 20.7949 20.976 20.5897V17.9875C20.976 17.6069 21.0857 17 20.705 17Z" fill="white"/>
<path d="M20.705 3H3.36133C3.18066 3 3 3.20513 3 3.41026V6.58974C3 6.79487 3.18066 7 3.36133 7H20.6146C20.7953 7 20.976 6.79487 20.976 6.58974V3.98755C20.976 3.60686 21.0857 3 20.705 3Z" fill="white"/>
</svg>
