<svg width="152" height="22" viewBox="0 0 152 22" fill="none" xmlns="http://www.w3.org/2000/svg">
<path d="M4.84307 13.5L1.15693 13.5C0.925791 13.5 0.755475 13.4515 0.645985 13.3545C0.548662 13.2455 0.5 13.0758 0.5 12.8455L0.5 9.15455C0.5 8.92424 0.548662 8.76061 0.645985 8.66364C0.755474 8.55455 0.925791 8.5 1.15693 8.5L4.84307 8.5C5.07421 8.5 5.23844 8.55455 5.33577 8.66364C5.44526 8.76061 5.5 8.92424 5.5 9.15455L5.5 12.8455C5.5 13.0758 5.44526 13.2455 5.33577 13.3545C5.23844 13.4515 5.07421 13.5 4.84307 13.5Z" fill="#3CFF7E"/>
<path d="M150.844 13.5L147.158 13.5C146.927 13.5 146.756 13.4515 146.647 13.3545C146.55 13.2455 146.501 13.0758 146.501 12.8455L146.501 9.15455C146.501 8.92424 146.55 8.76061 146.647 8.66364C146.756 8.55455 146.927 8.5 147.158 8.5L150.844 8.5C151.075 8.5 151.239 8.55455 151.337 8.66364C151.446 8.76061 151.501 8.92424 151.501 9.15455L151.501 12.8455C151.501 13.0758 151.446 13.2455 151.337 13.3545C151.239 13.4515 151.075 13.5 150.844 13.5Z" fill="#3CFF7E"/>
<path d="M23.1234 17H17.4534C15.9534 17 14.8374 16.7 14.1054 16.1C13.3854 15.5 13.0254 14.576 13.0254 13.328V7.712C13.0254 6.464 13.3854 5.54 14.1054 4.94C14.8374 4.34 15.9534 4.04 17.4534 4.04H21.9534C22.1814 4.04 22.3434 4.094 22.4394 4.202C22.5474 4.298 22.6014 4.46 22.6014 4.688V6.866C22.6014 7.094 22.5474 7.262 22.4394 7.37C22.3434 7.466 22.1814 7.514 21.9534 7.514H18.2094C17.8374 7.514 17.5614 7.592 17.3814 7.748C17.2014 7.892 17.1114 8.114 17.1114 8.414V12.716C17.1114 13.016 17.1774 13.238 17.3094 13.382C17.4534 13.526 17.6634 13.598 17.9394 13.598H19.6854V10.79C19.6854 10.562 19.7334 10.4 19.8294 10.304C19.9374 10.196 20.1054 10.142 20.3334 10.142H23.1234C23.3514 10.142 23.5134 10.196 23.6094 10.304C23.7174 10.4 23.7714 10.562 23.7714 10.79V16.352C23.7714 16.58 23.7174 16.748 23.6094 16.856C23.5134 16.952 23.3514 17 23.1234 17ZM30.6656 7.82L29.8196 10.556H32.6456L31.7996 7.82C31.7516 7.712 31.6976 7.634 31.6376 7.586C31.5896 7.538 31.5296 7.514 31.4576 7.514H31.0076C30.9356 7.514 30.8696 7.538 30.8096 7.586C30.7616 7.634 30.7136 7.712 30.6656 7.82ZM29.6396 16.352C29.6396 16.58 29.5856 16.748 29.4776 16.856C29.3816 16.952 29.2196 17 28.9916 17H26.3456C26.1176 17 25.9496 16.952 25.8416 16.856C25.7456 16.748 25.6976 16.58 25.6976 16.352V11.6C25.6976 11.24 25.7516 10.826 25.8596 10.358C25.9796 9.89 26.1596 9.344 26.3996 8.72L27.9656 4.634C28.0376 4.43 28.1456 4.28 28.2896 4.184C28.4456 4.088 28.6436 4.04 28.8836 4.04H33.7256C33.9536 4.04 34.1396 4.088 34.2836 4.184C34.4396 4.28 34.5536 4.43 34.6256 4.634L36.1916 8.72C36.4316 9.344 36.6056 9.89 36.7136 10.358C36.8336 10.826 36.8936 11.24 36.8936 11.6V16.352C36.8936 16.58 36.8396 16.748 36.7316 16.856C36.6356 16.952 36.4736 17 36.2456 17H33.5276C33.2876 17 33.1076 16.952 32.9876 16.856C32.8796 16.748 32.8256 16.58 32.8256 16.352V13.832H29.6396V16.352ZM42.446 17H39.764C39.536 17 39.368 16.952 39.26 16.856C39.164 16.748 39.116 16.58 39.116 16.352V4.688C39.116 4.46 39.164 4.298 39.26 4.202C39.368 4.094 39.536 4.04 39.764 4.04H42.662C42.854 4.04 43.01 4.082 43.13 4.166C43.262 4.25 43.382 4.388 43.49 4.58L45.11 7.514C45.17 7.622 45.218 7.7 45.254 7.748C45.302 7.796 45.362 7.82 45.434 7.82H45.596C45.668 7.82 45.722 7.796 45.758 7.748C45.806 7.7 45.86 7.622 45.92 7.514L47.522 4.58C47.63 4.388 47.744 4.25 47.864 4.166C47.996 4.082 48.158 4.04 48.35 4.04H51.266C51.494 4.04 51.656 4.094 51.752 4.202C51.86 4.298 51.914 4.46 51.914 4.688V16.352C51.914 16.58 51.86 16.748 51.752 16.856C51.656 16.952 51.494 17 51.266 17H48.494C48.266 17 48.098 16.952 47.99 16.856C47.894 16.748 47.846 16.58 47.846 16.352V10.016L46.784 11.978C46.676 12.182 46.544 12.332 46.388 12.428C46.244 12.512 46.058 12.554 45.83 12.554H45.11C44.882 12.554 44.69 12.512 44.534 12.428C44.39 12.332 44.264 12.182 44.156 11.978L43.094 10.016V16.352C43.094 16.58 43.04 16.748 42.932 16.856C42.836 16.952 42.674 17 42.446 17ZM63.3914 17H55.0394C54.8114 17 54.6434 16.952 54.5354 16.856C54.4394 16.748 54.3914 16.58 54.3914 16.352V4.688C54.3914 4.46 54.4394 4.298 54.5354 4.202C54.6434 4.094 54.8114 4.04 55.0394 4.04H63.3914C63.6194 4.04 63.7814 4.094 63.8774 4.202C63.9854 4.298 64.0394 4.46 64.0394 4.688V6.794C64.0394 7.022 63.9854 7.19 63.8774 7.298C63.7814 7.394 63.6194 7.442 63.3914 7.442H58.4234V8.828H61.9334C62.1614 8.828 62.3234 8.882 62.4194 8.99C62.5274 9.086 62.5814 9.248 62.5814 9.476V11.402C62.5814 11.63 62.5274 11.798 62.4194 11.906C62.3234 12.002 62.1614 12.05 61.9334 12.05H58.4234V13.598H63.3914C63.6194 13.598 63.7814 13.652 63.8774 13.76C63.9854 13.856 64.0394 14.018 64.0394 14.246V16.352C64.0394 16.58 63.9854 16.748 63.8774 16.856C63.7814 16.952 63.6194 17 63.3914 17ZM69.6068 17H66.8168C66.5888 17 66.4208 16.952 66.3128 16.856C66.2168 16.748 66.1688 16.58 66.1688 16.352V4.688C66.1688 4.46 66.2168 4.298 66.3128 4.202C66.4208 4.094 66.5888 4.04 66.8168 4.04H74.8448C75.0728 4.04 75.2348 4.094 75.3308 4.202C75.4388 4.298 75.4928 4.46 75.4928 4.688V6.83C75.4928 7.058 75.4388 7.226 75.3308 7.334C75.2348 7.43 75.0728 7.478 74.8448 7.478H70.2548V9.35H73.3868C73.6148 9.35 73.7768 9.404 73.8728 9.512C73.9808 9.608 74.0348 9.77 74.0348 9.998V12.158C74.0348 12.386 73.9808 12.554 73.8728 12.662C73.7768 12.758 73.6148 12.806 73.3868 12.806H70.2548V16.352C70.2548 16.58 70.2008 16.748 70.0928 16.856C69.9968 16.952 69.8348 17 69.6068 17ZM77.6557 17C77.4277 17 77.2597 16.952 77.1517 16.856C77.0557 16.748 77.0077 16.58 77.0077 16.352V14.21C77.0077 13.982 77.0557 13.82 77.1517 13.724C77.2597 13.616 77.4277 13.562 77.6557 13.562H79.4377V7.514H77.6557C77.4277 7.514 77.2597 7.466 77.1517 7.37C77.0557 7.262 77.0077 7.094 77.0077 6.866V4.688C77.0077 4.46 77.0557 4.298 77.1517 4.202C77.2597 4.094 77.4277 4.04 77.6557 4.04H85.3237C85.5517 4.04 85.7137 4.094 85.8097 4.202C85.9177 4.298 85.9717 4.46 85.9717 4.688V6.866C85.9717 7.094 85.9177 7.262 85.8097 7.37C85.7137 7.466 85.5517 7.514 85.3237 7.514H83.5777V13.562H85.3237C85.5517 13.562 85.7137 13.616 85.8097 13.724C85.9177 13.82 85.9717 13.982 85.9717 14.21V16.352C85.9717 16.58 85.9177 16.748 85.8097 16.856C85.7137 16.952 85.5517 17 85.3237 17H77.6557ZM91.5421 17H88.8421C88.6141 17 88.4461 16.952 88.3381 16.856C88.2421 16.748 88.1941 16.58 88.1941 16.352V4.688C88.1941 4.46 88.2421 4.298 88.3381 4.202C88.4461 4.094 88.6141 4.04 88.8421 4.04H90.7141C90.9421 4.04 91.1341 4.076 91.2901 4.148C91.4581 4.22 91.6201 4.346 91.7761 4.526L95.2681 8.522V4.688C95.2681 4.46 95.3161 4.298 95.4121 4.202C95.5201 4.094 95.6881 4.04 95.9161 4.04H98.6161C98.8441 4.04 99.0061 4.094 99.1021 4.202C99.2101 4.298 99.2641 4.46 99.2641 4.688V16.352C99.2641 16.58 99.2101 16.748 99.1021 16.856C99.0061 16.952 98.8441 17 98.6161 17H95.9161C95.6881 17 95.5201 16.952 95.4121 16.856C95.3161 16.748 95.2681 16.58 95.2681 16.352V14.138L92.1901 10.412V16.352C92.1901 16.58 92.1361 16.748 92.0281 16.856C91.9321 16.952 91.7701 17 91.5421 17ZM108.461 17H102.395C102.167 17 101.999 16.952 101.891 16.856C101.795 16.748 101.747 16.58 101.747 16.352V4.688C101.747 4.46 101.795 4.298 101.891 4.202C101.999 4.094 102.167 4.04 102.395 4.04H108.461C109.961 4.04 111.071 4.34 111.791 4.94C112.523 5.54 112.889 6.464 112.889 7.712V13.328C112.889 14.576 112.523 15.5 111.791 16.1C111.071 16.7 109.961 17 108.461 17ZM105.833 7.478V13.598H107.975C108.263 13.598 108.473 13.526 108.605 13.382C108.749 13.238 108.821 13.016 108.821 12.716V8.342C108.821 8.042 108.749 7.826 108.605 7.694C108.473 7.55 108.263 7.478 107.975 7.478H105.833ZM124.177 17H115.825C115.597 17 115.429 16.952 115.321 16.856C115.225 16.748 115.177 16.58 115.177 16.352V4.688C115.177 4.46 115.225 4.298 115.321 4.202C115.429 4.094 115.597 4.04 115.825 4.04H124.177C124.405 4.04 124.567 4.094 124.663 4.202C124.771 4.298 124.825 4.46 124.825 4.688V6.794C124.825 7.022 124.771 7.19 124.663 7.298C124.567 7.394 124.405 7.442 124.177 7.442H119.209V8.828H122.719C122.947 8.828 123.109 8.882 123.205 8.99C123.313 9.086 123.367 9.248 123.367 9.476V11.402C123.367 11.63 123.313 11.798 123.205 11.906C123.109 12.002 122.947 12.05 122.719 12.05H119.209V13.598H124.177C124.405 13.598 124.567 13.652 124.663 13.76C124.771 13.856 124.825 14.018 124.825 14.246V16.352C124.825 16.58 124.771 16.748 124.663 16.856C124.567 16.952 124.405 17 124.177 17ZM131.022 7.28V9.584H132.372C132.684 9.584 132.894 9.506 133.002 9.35C133.11 9.182 133.164 8.978 133.164 8.738V8.126C133.164 7.886 133.11 7.688 133.002 7.532C132.894 7.364 132.684 7.28 132.372 7.28H131.022ZM130.374 17H127.602C127.374 17 127.206 16.952 127.098 16.856C127.002 16.748 126.954 16.58 126.954 16.352V4.688C126.954 4.46 127.002 4.298 127.098 4.202C127.206 4.094 127.374 4.04 127.602 4.04H133.596C134.94 4.04 135.864 4.322 136.368 4.886C136.884 5.438 137.142 6.158 137.142 7.046V7.874C137.142 8.378 137.064 8.81 136.908 9.17C136.764 9.518 136.506 9.77 136.134 9.926C136.782 9.998 137.304 10.262 137.7 10.718C138.108 11.174 138.312 11.78 138.312 12.536V16.352C138.312 16.58 138.258 16.748 138.15 16.856C138.054 16.952 137.892 17 137.664 17H134.874C134.646 17 134.478 16.952 134.37 16.856C134.274 16.748 134.226 16.58 134.226 16.352V13.598C134.226 13.334 134.172 13.142 134.064 13.022C133.968 12.89 133.794 12.824 133.542 12.824H131.022V16.352C131.022 16.58 130.968 16.748 130.86 16.856C130.764 16.952 130.602 17 130.374 17Z" fill="#F3F7FB"/>
</svg>
