<svg width="24" height="24" viewBox="0 0 24 24" fill="none" xmlns="http://www.w3.org/2000/svg">
<path d="M19.125 17.2613C18.9869 17.2613 18.875 17.1493 18.875 17.0113L18.875 4.5C18.875 4.08579 18.5392 3.75 18.125 3.75L16.875 3.75C16.4608 3.75 16.125 4.08579 16.125 4.5L16.125 17.0113C16.125 17.1493 16.0131 17.2613 15.875 17.2613L14.2092 17.2613C13.5406 17.2613 13.2062 18.07 13.6796 18.5422L16.9703 21.8248C17.2631 22.1168 17.7369 22.1168 18.0297 21.8248L21.3204 18.5422C21.7938 18.07 21.4594 17.2613 20.7908 17.2613L19.125 17.2613Z" fill="white" stroke="white" stroke-width="0.5"/>
<path d="M5.875 7.73875C6.01307 7.73875 6.125 7.85068 6.125 7.98875L6.125 20.5C6.125 20.9142 6.46079 21.25 6.875 21.25L8.125 21.25C8.53921 21.25 8.875 20.9142 8.875 20.5L8.875 7.98875C8.875 7.85068 8.98693 7.73875 9.125 7.73875L10.7908 7.73875C11.4594 7.73875 11.7938 6.92996 11.3204 6.45776L8.02967 3.17523C7.73693 2.88322 7.26307 2.88322 6.97033 3.17523L3.67958 6.45776C3.20619 6.92996 3.54062 7.73875 4.20925 7.73875L5.875 7.73875Z" fill="white" stroke="white" stroke-width="0.5"/>
</svg>
