<svg width="24" height="24" viewBox="0 0 24 24" fill="none" xmlns="http://www.w3.org/2000/svg">
<path d="M4.19 12C4.19 7.69493 7.69493 4.19 12 4.19C16.3051 4.19 19.81 7.69493 19.81 12C19.81 16.3051 16.3051 19.81 12 19.81C7.69493 19.81 4.19 16.3051 4.19 12ZM1.81 12C1.81 17.6249 6.37507 22.19 12 22.19C17.6249 22.19 22.19 17.6249 22.19 12C22.19 6.37506 17.6249 1.81 12 1.81C6.37506 1.81 1.81 6.37507 1.81 12ZM11.81 10.81L8.3 10.81C8.02938 10.81 7.81 11.0294 7.81 11.3L7.81 12.7C7.81 12.9706 8.02938 13.19 8.3 13.19L11.81 13.19L11.81 15.2757C11.81 15.7123 12.3378 15.9309 12.6465 15.6222L15.9222 12.3465C16.1136 12.1551 16.1136 11.8449 15.9222 11.6535L12.6465 8.37778C12.3378 8.0691 11.81 8.28772 11.81 8.72426L11.81 10.81Z" fill="white" stroke="white" stroke-width="0.38"/>
</svg>
