<svg width="80" height="75" viewBox="0 0 80 75" fill="none" xmlns="http://www.w3.org/2000/svg">
<path d="M46.2858 54.2166V50.0427H50.5005V45.875H54.7152V41.701H58.9277V45.875H63.1424V41.701H67.3587V37.5333H58.9277V29.1917H71.5767V25.0248H63.1424V20.8508H80V4.1677H75.7884V0H46.2862V4.1677H42.0715V25.0254H37.8599V29.1931H33.6419V33.3608H29.4303V37.5347H25.2115V41.7008H12.6413V37.5339H8.42961V33.36H4.21164V25.0254H0V41.7022H4.21164V45.8762H8.42961V50.0439H12.6413V54.2179H16.7819V58.3153H20.9998V62.483H25.2354V75H33.665V70.826H29.447V62.568H33.6427V58.394H37.8607V62.568H42.0723V70.826H42.0484V75H50.478V70.826H46.2864V54.2249L46.2858 54.2166ZM50.5011 16.6839V12.51H54.7158V16.6839H50.5011Z" fill="#6C8AA6"/>
</svg>
