<svg width="80" height="80" viewBox="0 0 80 80" fill="none" xmlns="http://www.w3.org/2000/svg">
<path d="M75.0221 30.0445V15.0222H70.0444V10.0445H65.0667V5.06681L55.0223 5.06652V0H24.9778V4.97771H15.0222V9.95542H10.0445V14.9331H5.06682V29.9554H0V74.9332H4.97771V80H24.9777V75.0223H29.9554V80H49.9555V75.0223H54.9332L54.9334 80H74.9335V75.0223H80V30.0445L75.0221 30.0445ZM30.0443 40H25.0666V44.9777H15.0222V40H20.0887V30.0445H10.0442V25.0668H15.0219V20.0002H25.0664V24.9779H30.0441L30.0443 40ZM59.911 40H55.0221V44.9777H44.9777V40H50.0442L50.0445 30.0445H40V24.9779H44.9777V20.0002H54.9333V24.9779H59.911L59.911 40Z" fill="#6C8AA6"/>
</svg>
