<svg width="100" height="80" viewBox="0 0 100 80" fill="none" xmlns="http://www.w3.org/2000/svg">
<path d="M32.3242 30.7666H38.2061V43.0731H32.3242V30.7666Z" fill="#6C8AA6"/>
<path d="M44.1406 30.7666H50.0225V43.0731H44.1406V30.7666Z" fill="#6C8AA6"/>
<path d="M100 12.3074V0H76.4706V6.15337H47.0604V0H5.88245V6.15337H0V80H11.7651V73.8466H35.2925V80H76.4704V73.8466H88.2355V67.6933L99.9998 67.6925V61.5391H94.118V55.3843H88.2361V49.2309H94.118V43.0775H88.2361L88.2353 30.7702H94.1172V24.6168L99.9996 24.6144V18.461L88.2353 18.4602V12.3054H99.9996L100 12.3074ZM11.7653 18.4622H17.6485V12.3074H23.5304V24.6139H23.5281V24.6147H11.7653L11.7653 18.4622ZM23.5304 61.5368H17.6485V55.382H11.7667L11.7659 49.2286H23.5294V49.2294H23.5302L23.5304 61.5368ZM55.8811 58.4623H49.9992V52.305H44.1174V58.4631H38.2355V52.305H32.3537V58.4631H26.4718L26.4741 46.151H20.5923L20.59 27.6927H26.4718V21.5379H55.882V27.6927H61.7639V46.1526H55.882L55.8811 58.4623ZM70.5882 55.382H64.7049V61.5368H58.8231V49.2311H58.8238V49.2287H70.5874V55.382L70.5882 55.382ZM70.5882 24.6141H58.8255V24.6133H58.8247L58.8239 12.3068H64.7058V18.4616H70.5876L70.5882 24.6141Z" fill="#6C8AA6"/>
</svg>
