<svg width="20" height="20" viewBox="0 0 20 20" fill="none" xmlns="http://www.w3.org/2000/svg">
<path d="M4.34274 12.3486C4.34274 13.0712 3.81564 13.6628 3.17168 13.6628C2.52772 13.6628 2 13.0718 2 12.3486V8.04765C2 7.32505 2.5271 6.73346 3.17168 6.73346C3.81625 6.73346 4.34274 7.32505 4.34274 8.04765V12.3486ZM18 12.3486C18 13.0712 17.4729 13.6628 16.8283 13.6628C16.1837 13.6628 15.6566 13.0718 15.6566 12.3486V8.04765C15.6566 7.32505 16.1837 6.73346 16.8283 6.73346C17.4729 6.73346 18 7.32505 18 8.04765V12.3486ZM12.5611 2.57646L13.3127 1.28812C13.3742 1.18296 13.3557 1.06018 13.2727 1.01612C13.1897 0.972059 13.0703 1.02141 13.0095 1.12657L12.2406 2.44487C11.5184 2.17657 10.7497 2.04026 9.97478 2.04303C9.15676 2.04303 8.38302 2.1899 7.69293 2.45133L6.92043 1.12715C6.85892 1.02199 6.74022 0.972059 6.65718 1.01671C6.57415 1.06136 6.5557 1.18355 6.61721 1.28871L7.37249 2.58351C5.80103 3.28849 4.74252 4.61207 4.74252 6.12894C4.74252 6.28286 4.75421 6.43502 4.77512 6.58483H15.1751C15.1966 6.43502 15.2077 6.28345 15.2077 6.12894C15.2077 4.60737 14.1424 3.28026 12.5623 2.57705L12.5611 2.57646ZM7.59945 4.82533C7.53935 4.82533 7.47985 4.81402 7.42433 4.79206C7.36881 4.77009 7.31837 4.7379 7.27587 4.69731C7.23338 4.65672 7.19968 4.60854 7.17668 4.55551C7.15368 4.50248 7.14185 4.44564 7.14185 4.38824C7.14185 4.33085 7.15368 4.27401 7.17668 4.22098C7.19968 4.16795 7.23338 4.11977 7.27587 4.07918C7.31837 4.03859 7.36881 4.0064 7.42433 3.98443C7.47985 3.96247 7.53935 3.95116 7.59945 3.95116C7.72081 3.95116 7.8372 3.99721 7.92302 4.07918C8.00884 4.16115 8.05705 4.27232 8.05705 4.38824C8.05705 4.50417 8.00884 4.61534 7.92302 4.69731C7.8372 4.77928 7.72081 4.82533 7.59945 4.82533ZM12.3747 4.82533C12.3146 4.82533 12.2551 4.81402 12.1996 4.79206C12.1441 4.77009 12.0936 4.7379 12.0511 4.69731C12.0087 4.65672 11.975 4.60854 11.952 4.55551C11.929 4.50248 11.9171 4.44564 11.9171 4.38824C11.9171 4.33085 11.929 4.27401 11.952 4.22098C11.975 4.16795 12.0087 4.11977 12.0511 4.07918C12.0936 4.03859 12.1441 4.0064 12.1996 3.98443C12.2551 3.96247 12.3146 3.95116 12.3747 3.95116C12.4961 3.95116 12.6125 3.99721 12.6983 4.07918C12.7841 4.16115 12.8323 4.27232 12.8323 4.38824C12.8323 4.50417 12.7841 4.61534 12.6983 4.69731C12.6125 4.77928 12.4961 4.82533 12.3747 4.82533ZM4.74129 7.01897V14.3454H4.7456C4.79911 14.964 5.39509 15.4557 6.11717 15.4557H13.8306C14.552 15.4557 15.148 14.964 15.2021 14.3454H15.2064V7.01897H4.74191H4.74129ZM9.22503 15.4557V17.6858C9.22503 18.4084 8.69793 19 8.05336 19C7.40878 19 6.88229 18.4084 6.88229 17.6858V15.4557H9.22503ZM13.1294 15.4557V17.6858C13.1294 18.4084 12.6023 19 11.9577 19C11.3131 19 10.786 18.4084 10.786 17.6858V15.4557H13.1294Z" fill="white"/>
</svg>
