<svg width="21" height="21" viewBox="0 0 21 21" fill="none" xmlns="http://www.w3.org/2000/svg">
<path fill-rule="evenodd" clip-rule="evenodd" d="M13.7603 1.04288C12.9285 1.1899 11.9767 1.74214 11.4088 2.40721C10.792 3.12968 10.4394 3.98704 10.4394 4.76438C10.4394 4.91803 10.4478 5.06511 10.458 5.09123C10.4855 5.16093 10.9387 5.15471 11.2546 5.0803C12.4987 4.78722 13.5437 3.79749 13.9931 2.48679C14.1563 2.01079 14.2357 1.39491 14.1733 1.09024C14.1509 0.981073 14.1261 0.978221 13.7603 1.04288ZM13.3773 5.38317C13.0296 5.4263 12.5127 5.57386 11.8783 5.81102C10.6152 6.28321 10.5636 6.28357 9.39341 5.82909C8.4623 5.46745 8.11424 5.39427 7.43994 5.41826C6.80871 5.44074 6.36575 5.54436 5.79582 5.80289C4.92528 6.19775 4.09845 7.0019 3.63974 7.89984C3.35706 8.45316 3.16426 9.06559 3.072 9.70323C2.78228 11.7057 3.38136 14.2556 4.60842 16.2427C4.81958 16.5847 5.37467 17.3393 5.71387 17.7456C6.47148 18.653 7.15787 19.0419 7.92145 18.9964C8.28996 18.9745 8.52164 18.9119 9.16743 18.6595C10.0358 18.3203 10.4787 18.2395 11.1827 18.2919C11.5805 18.3216 11.9091 18.4109 12.4846 18.6459C13.0634 18.8822 13.3076 18.9458 13.7179 18.9671C14.3868 19.0017 14.9333 18.785 15.5212 18.2517C16.2339 17.6053 17.2485 16.1019 17.7164 14.9991C17.8354 14.7186 18.0124 14.2287 17.9993 14.2162C17.9952 14.2122 17.8966 14.1607 17.7803 14.1016C17.2033 13.8084 16.5308 13.2373 16.2138 12.7714C15.8994 12.3091 15.685 11.7869 15.5949 11.2643C15.5323 10.9016 15.5316 10.2415 15.5932 9.89275C15.7774 8.85169 16.3836 7.93229 17.3121 7.28579C17.4237 7.20811 17.5149 7.13487 17.5149 7.12301C17.5149 7.08168 17.1636 6.683 16.9479 6.47949C16.0751 5.6562 14.6651 5.22327 13.3773 5.38317Z" fill="white"/>
</svg>
