<svg width="20" height="20" viewBox="0 0 20 20" fill="none" xmlns="http://www.w3.org/2000/svg">
<path fill-rule="evenodd" clip-rule="evenodd" d="M7.21853 3.01422C6.18547 3.0778 5.21733 3.32901 4.28765 3.77469C2.96739 4.40763 1.8505 5.41283 1.08787 6.65448C0.119729 8.23078 -0.219003 10.1133 0.139315 11.9263C0.575353 14.1326 2.00481 16.0286 4.0446 17.1062C4.95477 17.587 5.94906 17.8764 7.03877 17.9777C7.35829 18.0074 12.6435 18.0074 12.9631 17.9777C15.2487 17.7652 17.2139 16.6771 18.5539 14.8822C19.8837 13.101 20.3296 10.7664 19.7528 8.60476C19.327 7.00884 18.3645 5.58823 17.0194 4.57037C15.7899 3.64002 14.3374 3.11014 12.752 3.01357C12.4486 2.99508 7.51991 2.99566 7.21853 3.01422ZM12.9865 4.9073C13.9381 5.03332 14.7619 5.32854 15.4954 5.80631C16.9244 6.73728 17.8342 8.18124 18.0458 9.85415C18.0849 10.1632 18.0849 10.8402 18.0458 11.1493C17.8421 12.7597 16.9934 14.1539 15.6429 15.0961C14.8782 15.6297 13.9933 15.9629 12.9865 16.0961C12.8108 16.1193 12.5262 16.1226 10.1651 16.1278C7.43897 16.134 7.26507 16.131 6.84321 16.0706C6.32247 15.9961 5.77579 15.8372 5.28163 15.6167C4.38233 15.2154 3.56556 14.5545 2.98548 13.7587C2.4205 12.9836 2.07873 12.1174 1.95593 11.1493C1.91684 10.8411 1.9169 10.1477 1.95603 9.84653C2.04533 9.15917 2.23395 8.55308 2.54398 7.95721C3.42083 6.27202 5.12002 5.11643 7.02314 4.91102C7.1435 4.89803 7.27715 4.88501 7.32014 4.88208C7.36312 4.87917 8.61168 4.87781 10.0947 4.87909C12.5359 4.8812 12.8096 4.88386 12.9865 4.9073ZM6.18686 10.5016V14.029H7.31228H8.43769L8.44164 11.573L8.4456 9.11695L10.0087 11.5728L11.5719 14.0286L12.6934 14.0288L13.815 14.029V10.5017V6.97445H12.6973H11.5797L11.5788 9.43134C11.578 11.86 11.5776 11.8878 11.5478 11.8501C11.5313 11.8292 10.8288 10.7253 9.98674 9.39706L8.45576 6.98207L7.32131 6.97815L6.18686 6.97425V10.5016Z" fill="white"/>
</svg>
