<svg width="20" height="20" viewBox="0 0 20 20" fill="none" xmlns="http://www.w3.org/2000/svg">
<path fill-rule="evenodd" clip-rule="evenodd" d="M7.48252 9.39815V17.7963L7.56739 17.8288C7.61407 17.8466 7.79435 17.9135 7.96802 17.9774C8.1417 18.0412 8.32642 18.1096 8.37852 18.1292C8.43062 18.1489 8.87823 18.3146 9.3732 18.4976C9.86817 18.6805 10.3762 18.8684 10.5021 18.9151L10.731 19L10.7354 11.8575C10.7394 5.24684 10.7407 4.70874 10.7529 4.63006C10.7991 4.3316 10.8796 4.14222 11.009 4.02803C11.1246 3.92594 11.258 3.91113 11.4363 3.98059C11.7594 4.1065 11.9326 4.38831 12.0078 4.91014L12.0247 5.02799L12.0273 8.02936L12.0299 11.0307L12.0988 11.0679C12.469 11.2677 12.8479 11.3985 13.2019 11.4489C13.328 11.4668 13.6819 11.4642 13.7924 11.4445C14.0163 11.4046 14.1922 11.342 14.3782 11.236C14.5773 11.1224 14.7122 11.0108 14.8706 10.8285C15.2437 10.3989 15.4841 9.7936 15.5971 8.99913C15.6494 8.63136 15.6646 8.34168 15.6583 7.82584C15.6523 7.32624 15.6365 7.06186 15.5893 6.67541C15.3798 4.95662 14.6995 3.8926 13.2809 3.06516C12.7456 2.75297 12.2692 2.54037 11.3073 2.18444C9.95243 1.68313 8.46273 1.21752 7.61278 1.02973C7.56502 1.01917 7.51618 1.00816 7.50423 1.00526L7.48252 1V9.39815ZM4.71164 12.0379C3.54151 12.523 2.44204 12.9784 2.26836 13.05C1.72607 13.2734 1.45848 13.4005 1.10001 13.6049C0.708654 13.8279 0.419322 14.0374 0.260734 14.2126C0.149488 14.3354 0.0607088 14.4999 0.0220506 14.6548C0.000815043 14.7399 -0.00648715 14.8949 0.00636471 14.9878C0.0358024 15.2004 0.128947 15.3923 0.298342 15.589C0.450354 15.7656 0.617104 15.899 0.85529 16.0348C1.07361 16.1593 1.30235 16.253 1.85391 16.444C2.71794 16.7432 3.67855 16.9178 4.58533 16.9404C5.33068 16.959 5.89556 16.9088 6.71086 16.7517L6.84309 16.7262V15.7379C6.84309 14.8003 6.84238 14.7498 6.82927 14.7558C6.82168 14.7592 6.61475 14.847 6.36943 14.9509C5.07495 15.4989 5.12503 15.4786 4.92873 15.5342C4.46543 15.6654 3.88823 15.6943 3.48408 15.6067C3.19008 15.5429 3.00236 15.4213 2.97592 15.2776C2.9556 15.1671 3.02111 15.051 3.16536 14.9418C3.29377 14.8446 3.33631 14.8242 3.90642 14.5868C4.11266 14.5009 4.78407 14.2209 5.39844 13.9645C6.01281 13.708 6.58652 13.469 6.67336 13.4333C6.7602 13.3976 6.83392 13.3656 6.8372 13.3623C6.84048 13.3589 6.84225 12.8611 6.84115 12.256L6.83914 11.1559L4.71164 12.0379ZM14.6071 12.1194C13.645 12.1705 12.504 12.4149 11.5698 12.7701L11.3586 12.8503V13.9896C11.3586 14.7154 11.3614 15.1288 11.3662 15.1288C11.3704 15.1288 11.6821 15.0021 12.0589 14.8473C12.4358 14.6925 12.8435 14.5252 12.9651 14.4754C13.1837 14.386 14.5799 13.8125 14.8163 13.715C15.1008 13.5978 15.3998 13.5251 15.7439 13.4895C15.8825 13.4752 16.2693 13.4751 16.3794 13.4893C16.7172 13.5331 16.9366 13.6158 17.0437 13.7396C17.1301 13.8393 17.1313 13.9424 17.0476 14.0639C16.9948 14.1405 16.8598 14.2419 16.7149 14.3139C16.6714 14.3354 16.3659 14.4652 16.036 14.6023C14.4124 15.2766 14.0457 15.4289 13.6479 15.5943C13.4113 15.6926 12.8003 15.9465 12.2901 16.1584L11.3626 16.5438L11.3605 17.6444L11.3585 18.745L11.4355 18.7125C11.4997 18.6854 12.8273 18.1293 14.4216 17.4618C14.6191 17.3791 15.3065 17.0912 15.9491 16.822C16.5917 16.5529 17.2542 16.2755 17.4214 16.2055C18.7267 15.6597 18.6407 15.6985 18.9608 15.51C19.3137 15.3022 19.5546 15.1096 19.7387 14.8881C19.8689 14.7314 19.9405 14.5965 19.9808 14.432C20.0064 14.3275 20.0064 14.1331 19.9808 14.03C19.8943 13.6812 19.6261 13.3764 19.1739 13.113C18.9404 12.977 18.8815 12.9505 18.2542 12.6985C17.4947 12.3935 16.5898 12.1986 15.6057 12.1283C15.4257 12.1154 14.7891 12.1098 14.6071 12.1194Z" fill="white"/>
</svg>
