<svg width="20" height="20" viewBox="0 0 20 20" fill="none" xmlns="http://www.w3.org/2000/svg">
<path fill-rule="evenodd" clip-rule="evenodd" d="M8.60536 2.00344C8.42264 2.01113 8.09194 2.0533 7.88122 2.09581C7.13785 2.24577 6.41301 2.5954 5.83303 3.08375C4.87885 3.88718 4.25897 5.02338 4.0607 6.33233C4.01384 6.64169 3.99971 6.84648 4 7.21163C4.00052 7.86304 4.08635 8.4111 4.27991 8.99904C4.86776 10.7846 6.29732 12.054 8.04499 12.3423C8.4024 12.4012 8.49788 12.4048 9.81287 12.4077C11.0573 12.4105 11.0914 12.4113 11.1522 12.4395C11.2239 12.4726 11.3079 12.5628 11.3407 12.642C11.3982 12.7804 11.3547 12.9851 11.2462 13.0869C11.131 13.195 11.4648 13.1852 7.77259 13.1883C5.94813 13.1898 4.45071 13.1917 4.44498 13.1924C4.43925 13.1931 4.43457 13.6868 4.43457 14.2895V15.3854L7.90791 15.381L11.3813 15.3766L11.5153 15.3446C12.2597 15.1669 12.8858 14.6343 13.234 13.8825C13.4782 13.3554 13.54 12.8145 13.4197 12.257C13.2293 11.3745 12.569 10.6037 11.7645 10.3246C11.4515 10.2161 11.5308 10.221 9.93779 10.2103C8.5316 10.2008 8.50598 10.2001 8.37268 10.1689C7.65781 10.0013 7.0295 9.54501 6.6031 8.88373C6.50066 8.72485 6.35231 8.4239 6.28864 8.24575C5.99074 7.41234 6.06667 6.48019 6.49561 5.7053C6.94104 4.9006 7.66348 4.36351 8.49441 4.21932C8.62102 4.19735 8.93468 4.19497 12.0891 4.19202C13.9899 4.19025 15.5488 4.18784 15.5532 4.18667C15.5577 4.1855 15.5608 3.6932 15.5602 3.09264L15.559 2.00073L12.1307 2.00006C10.2452 1.99968 8.65879 2.00121 8.60536 2.00344ZM8.62618 4.63266C8.22867 4.68571 7.82371 4.87395 7.48112 5.16489C7.33641 5.28779 7.10451 5.54421 7.00228 5.69434C6.46092 6.48937 6.37105 7.41549 6.75213 8.27213C6.99215 8.8117 7.43664 9.28966 7.94392 9.55369C8.1435 9.65756 8.30642 9.71498 8.54547 9.7657C8.5938 9.77595 9.11235 9.78474 10.0488 9.79117C11.4609 9.80089 11.4801 9.80141 11.6172 9.83326C12.1754 9.96295 12.658 10.2495 13.0676 10.6944C13.4709 11.1325 13.7289 11.6529 13.8456 12.264C13.8837 12.4635 13.8984 12.92 13.8735 13.132C13.7919 13.826 13.4978 14.4487 13.0129 14.9537C12.6071 15.3763 12.1687 15.63 11.6157 15.762L11.4784 15.7948L7.95649 15.799L4.43457 15.8032V16.8969C4.43457 17.7594 4.43824 17.9919 4.45192 17.9962C4.46147 17.9993 6.04008 18.0008 7.95996 17.9996C11.7712 17.9971 11.6124 18.0004 12.0586 17.9147C14.0987 17.5231 15.6388 15.8186 15.9465 13.6117C16.0244 13.0526 16.0169 12.3944 15.9262 11.8429C15.8301 11.2586 15.6281 10.656 15.3633 10.1633C14.6675 8.8689 13.5075 7.98144 12.1377 7.69572C11.7231 7.60923 11.7583 7.611 10.2778 7.60196C8.92888 7.59373 8.90987 7.59321 8.84825 7.56349C8.77673 7.529 8.68904 7.43454 8.6573 7.35779C8.63024 7.29238 8.62784 7.13635 8.65273 7.06148C8.67784 6.98597 8.77136 6.8826 8.84825 6.84542L8.91071 6.81523L12.2348 6.80802L15.559 6.80081V5.71251V4.6242L12.1377 4.62241C10.256 4.62142 8.6758 4.62603 8.62618 4.63266Z" fill="white"/>
</svg>
