<svg width="20" height="20" viewBox="0 0 20 20" fill="none" xmlns="http://www.w3.org/2000/svg">
<path fill-rule="evenodd" clip-rule="evenodd" d="M14.3898 2.67109C11.8611 3.03973 9.79127 3.34155 9.79012 3.34178C9.78896 3.34202 9.78803 4.87062 9.78803 6.73869V10.1351L10.2963 10.1297C10.5759 10.1267 12.5573 10.1111 14.6994 10.0949C16.8415 10.0788 18.6855 10.0633 18.7971 10.0606L19 10.0556V6.02738C19 3.81186 18.9972 1.99954 18.9937 2C18.9903 2.00045 16.9185 2.30244 14.3898 2.67109ZM5.45607 3.93803C3.55899 4.19605 2.00456 4.40943 2.00178 4.4122C1.999 4.41497 1.99953 5.71444 2.00295 7.29991L2.00918 10.1826L2.0812 10.1829C2.32255 10.184 8.93235 10.1469 8.94088 10.1444C8.95305 10.1409 8.95519 7.95066 8.94576 5.13294L8.94019 3.46734L8.92275 3.46811C8.91316 3.46854 7.35316 3.68 5.45607 3.93803ZM2.00679 13.7634V16.6518L5.46442 17.1255C7.36612 17.386 8.92926 17.599 8.93807 17.5988C8.9538 17.5986 8.954 17.5806 8.94854 16.6288C8.94548 16.0955 8.94298 14.5925 8.94297 13.289V10.9189L8.23387 10.9132C7.12085 10.9042 2.57634 10.8751 2.27663 10.875L2.00679 10.875V13.7634ZM9.77533 11.431C9.77768 11.6872 9.78157 13.2029 9.78396 14.7993C9.78635 16.3956 9.78972 17.7031 9.79143 17.7048C9.79474 17.7081 18.9681 19 18.9882 19C18.9983 19 19 18.4385 19 14.9927V10.9854L18.4122 10.9803C18.0889 10.9775 16.0124 10.973 13.7978 10.9702L9.77107 10.965L9.77533 11.431Z" fill="white"/>
</svg>
