<svg width="20" height="20" viewBox="0 0 20 20" fill="none" xmlns="http://www.w3.org/2000/svg">
<path fill-rule="evenodd" clip-rule="evenodd" d="M9.68176 1.00797C9.09112 1.02275 8.60175 1.07436 8.18418 1.1659C7.36875 1.34467 6.82555 1.53456 5.99876 1.92988C5.69976 2.07286 5.55668 2.14915 5.51061 2.19021C5.47743 2.21977 5.47716 2.22055 5.49484 2.23486C5.51089 2.24787 5.54228 2.24884 5.78716 2.2439C6.19616 2.23564 6.50821 2.25672 6.78105 2.311C7.31623 2.41749 8.15206 2.69881 8.84926 3.00709C8.94792 3.05072 9.23924 3.19076 9.49666 3.31831C9.75406 3.44586 9.97522 3.55021 9.98812 3.55021C10.0303 3.55021 10.2614 3.44897 10.7161 3.23129C11.1465 3.02525 11.4249 2.90308 11.755 2.77535C12.5693 2.46024 13.2841 2.2845 13.9036 2.24715C14.0651 2.23741 14.2567 2.24168 14.5748 2.26208C14.6339 2.26587 14.6574 2.26468 14.6512 2.25821C14.6302 2.23641 14.3238 2.0586 14.1745 1.98158C13.5711 1.67034 12.7348 1.36936 11.9708 1.18846C11.5965 1.09984 11.3007 1.05787 10.8236 1.02574C10.6847 1.01639 10.0693 0.997708 9.98308 1.00023C9.95834 1.00095 9.82275 1.00444 9.68176 1.00797ZM16.0241 3.51886C15.7206 3.57629 15.2496 3.77048 14.888 3.98734C14.3975 4.28153 13.8449 4.71255 13.1659 5.33068C12.5515 5.88997 12.5148 5.92495 12.5274 5.93955C12.5472 5.96248 13.0879 6.64404 13.1907 6.77571C13.763 7.50826 14.4524 8.50752 15.0379 9.45314C16.0122 11.0267 16.7397 12.4752 17.0212 13.4019C17.2462 14.1429 17.3232 14.7828 17.239 15.2123C17.2014 15.4041 17.1995 15.4169 17.2084 15.4224C17.2619 15.4554 17.8641 14.4781 18.1545 13.8871C18.4888 13.2066 18.8521 12.0275 18.9364 11.3489C18.9824 10.9795 19 10.6195 19 10.0506C19 9.26512 18.9561 8.67806 18.8639 8.23122C18.6071 6.98755 18.0523 5.71458 17.3327 4.71822C16.9513 4.19005 16.4835 3.68089 16.2518 3.54157C16.1906 3.5048 16.1303 3.49877 16.0241 3.51886ZM3.90872 3.52493C3.83425 3.5333 3.75736 3.57008 3.67346 3.63746C3.59076 3.7039 3.3057 3.99229 3.17803 4.13871C2.29594 5.15029 1.57234 6.59025 1.26675 7.94214C1.18532 8.3024 1.05489 9.16858 1.01487 9.61486C0.997106 9.81303 0.994849 10.1778 1.01031 10.3516C1.03451 10.6236 1.09382 11.0814 1.14243 11.3714C1.36762 12.7146 1.74335 13.7379 2.39452 14.781C2.60411 15.1168 2.82679 15.4366 2.85978 15.4493C2.87998 15.457 2.87637 15.4355 2.83727 15.3155C2.81493 15.2469 2.79643 15.1666 2.7878 15.1008C2.72969 14.658 2.86451 13.8795 3.131 13.1189C3.72856 11.4134 5.42253 8.57832 7.07677 6.51515C7.21641 6.34099 7.49985 5.99267 7.53831 5.94795C7.55138 5.93277 7.53122 5.91379 6.86649 5.31543C6.01886 4.55243 5.41866 4.10371 4.87872 3.82933C4.6984 3.73771 4.57836 3.68703 4.38831 3.62232C4.13189 3.53501 4.02045 3.51239 3.90872 3.52493ZM9.96925 8.31853C9.66568 8.47626 8.73975 9.28607 7.79876 10.2168C6.61601 11.3867 5.62368 12.5514 4.92819 13.5861C4.01517 14.9443 3.67996 15.9787 3.96588 16.5555C4.06797 16.7615 4.28732 16.9789 4.66285 17.2463C5.60552 17.9177 6.52216 18.3672 7.56011 18.6671C8.42022 18.9157 9.29751 19.025 10.1924 18.9952C11.3341 18.9572 12.335 18.77 13.1908 18.4345C14.3003 17.9994 15.5781 17.2214 15.9908 16.7295C16.0808 16.6222 16.1167 16.5631 16.1494 16.468C16.2869 16.0687 16.1555 15.449 15.7702 14.6805C15.356 13.8542 14.6119 12.7901 13.811 11.879C12.7193 10.6369 10.6543 8.63735 10.1428 8.32696C10.0627 8.27834 10.048 8.27762 9.96925 8.31853Z" fill="white"/>
</svg>
